<svg xmlns="http://www.w3.org/2000/svg" style="display: none;"><symbol id="exit-1" viewBox="0 0 512 512"><title>exit-1</title><path d="M510.371,226.513c-1.088-2.603-2.645-4.971-4.629-6.955l-63.979-63.979c-8.341-8.32-21.824-8.32-30.165,0 c-8.341,8.341-8.341,21.845,0,30.165l27.584,27.584H320.013c-11.797,0-21.333,9.557-21.333,21.333s9.536,21.333,21.333,21.333 h119.168l-27.584,27.584c-8.341,8.341-8.341,21.845,0,30.165c4.16,4.181,9.621,6.251,15.083,6.251s10.923-2.069,15.083-6.251 l63.979-63.979c1.984-1.963,3.541-4.331,4.629-6.955C512.525,237.606,512.525,231.718,510.371,226.513z"/><path d="M362.68,298.667c-11.797,0-21.333,9.557-21.333,21.333v106.667h-85.333V85.333c0-9.408-6.187-17.728-15.211-20.437 l-74.091-22.229h174.635v106.667c0,11.776,9.536,21.333,21.333,21.333s21.333-9.557,21.333-21.333v-128 C384.013,9.557,374.477,0,362.68,0H21.347c-0.768,0-1.451,0.32-2.197,0.405c-1.003,0.107-1.92,0.277-2.88,0.512 c-2.24,0.576-4.267,1.451-6.165,2.645c-0.469,0.299-1.045,0.32-1.493,0.661C8.44,4.352,8.376,4.587,8.205,4.715 C5.88,6.549,3.939,8.789,2.531,11.456c-0.299,0.576-0.363,1.195-0.597,1.792c-0.683,1.621-1.429,3.2-1.685,4.992 c-0.107,0.64,0.085,1.237,0.064,1.856c-0.021,0.427-0.299,0.811-0.299,1.237V448c0,10.176,7.189,18.923,17.152,20.907 l213.333,42.667c1.387,0.299,2.795,0.427,4.181,0.427c4.885,0,9.685-1.685,13.525-4.843c4.928-4.053,7.808-10.091,7.808-16.491 v-21.333H362.68c11.797,0,21.333-9.557,21.333-21.333V320C384.013,308.224,374.477,298.667,362.68,298.667z"/></symbol><symbol id="exit" viewBox="0 0 512.021 512.021"><title>exit</title><g transform="translate(-1 -1)"> <g> <g> <path d="M508.184,249.202c0.203-0.247,0.379-0.507,0.568-0.76c0.227-0.304,0.463-0.601,0.674-0.917 c0.203-0.303,0.379-0.618,0.565-0.93c0.171-0.286,0.35-0.565,0.508-0.86c0.17-0.318,0.314-0.645,0.467-0.969 c0.145-0.307,0.298-0.609,0.428-0.923c0.13-0.315,0.235-0.636,0.35-0.956c0.121-0.337,0.25-0.67,0.355-1.015 c0.097-0.32,0.168-0.645,0.249-0.968c0.089-0.351,0.187-0.698,0.258-1.056c0.074-0.375,0.118-0.753,0.172-1.13 c0.044-0.311,0.104-0.618,0.135-0.933c0.138-1.4,0.138-2.811,0-4.211c-0.031-0.315-0.09-0.621-0.135-0.932 c-0.054-0.378-0.098-0.756-0.173-1.13c-0.071-0.358-0.169-0.704-0.258-1.055c-0.081-0.324-0.152-0.649-0.249-0.969 c-0.104-0.344-0.233-0.677-0.354-1.013c-0.115-0.32-0.22-0.642-0.35-0.957c-0.13-0.314-0.283-0.616-0.428-0.922 c-0.153-0.325-0.297-0.652-0.467-0.97c-0.157-0.294-0.337-0.573-0.507-0.859c-0.186-0.312-0.362-0.627-0.565-0.931 c-0.211-0.315-0.446-0.612-0.673-0.915c-0.19-0.254-0.367-0.515-0.57-0.762c-0.443-0.539-0.909-1.058-1.402-1.551 c-0.004-0.004-0.007-0.008-0.011-0.012l-64-64c-8.331-8.331-21.839-8.331-30.17,0c-8.331,8.331-8.331,21.839,0,30.17 l27.582,27.582H321.019c-11.782,0-21.333,9.551-21.333,21.333c0,11.782,9.551,21.333,21.333,21.333h119.163l-27.582,27.582 c-8.331,8.331-8.331,21.839,0,30.17c8.331,8.331,21.839,8.331,30.17,0l64-64c0.004-0.004,0.007-0.008,0.011-0.012 C507.275,250.26,507.741,249.742,508.184,249.202z"/> <path d="M363.686,299.672c-11.782,0-21.333,9.551-21.333,21.333v106.667h-85.333V86.347v-0.008 c0-9.421-6.18-17.727-15.203-20.434l-74.11-22.233h174.647v106.667c0,11.782,9.551,21.333,21.333,21.333 s21.333-9.551,21.333-21.333v-128c0-11.782-9.551-21.333-21.333-21.333H22.353c-0.002,0-0.004,0-0.006,0 c-0.631-0.001-1.256,0.029-1.876,0.083C10.685,1.827,4.306,8.264,1.988,15.949c-0.149,0.478-0.279,0.966-0.395,1.46 c-0.012,0.053-0.022,0.107-0.034,0.161c-0.115,0.508-0.211,1.024-0.29,1.547c-0.011,0.074-0.023,0.147-0.034,0.221 c-0.067,0.477-0.12,0.96-0.155,1.449c-0.062,0.788-0.081,1.578-0.061,2.368v425.859c0,10.169,7.178,18.925,17.15,20.919 L231.502,512.6c13.201,2.64,25.517-7.457,25.517-20.919v-21.342h106.667c11.782,0,21.333-9.551,21.333-21.333v-128 C385.019,309.223,375.468,299.672,363.686,299.672z M214.353,465.658L43.686,431.525V51.02l170.667,51.2v346.785V465.658z"/> </g> </g> </g></symbol><symbol id="like" viewBox="0 0 512 512"><title>like</title><path d="M512,310.336c0-15.509-5.845-28.907-15.765-38.528c4.864-8.171,7.659-17.685,7.659-27.861 c0-29.611-23.595-51.947-54.869-51.947H316.565l3.733-21.355c8.555-40.064,3.008-85.056,1.088-97.899 C316.288,38.336,285.931,0,248.512,0C215.232,0,192,26.304,192,64c0,66.795-14.848,91.52-23.723,100.309 c-6.336,6.293-11.499,6.421-10.987,6.528c-0.896-0.128-1.792-0.171-2.688-0.171h-5.269c0-11.776-9.557-21.333-21.333-21.333 H21.333C9.557,149.333,0,158.891,0,170.667v320C0,502.443,9.557,512,21.333,512H128c11.776,0,21.333-9.557,21.333-21.333H407.36 c30.656,0,54.656-23.125,54.656-52.651c0-6.251-1.088-12.245-3.051-17.835c16.789-8.917,27.947-26.155,27.947-46.379 c0-6.187-1.003-12.096-2.88-17.6C500.843,347.392,512,330.325,512,310.336z M457.344,320h-24.981H384 c-11.776,0-21.333,9.557-21.333,21.333c0,11.776,9.557,21.333,21.333,21.333h48.363c6.891,0,11.883,4.693,11.883,11.136 c0,7.04-5.973,10.197-11.883,10.197h-16.661h-8.341h-44.693c-11.776,0-21.333,9.557-21.333,21.333s9.557,21.333,21.333,21.333 h44.693c6.848,0,11.989,4.885,11.989,11.349c0,6.891-6.016,9.984-11.989,9.984H149.333V213.333h4.437 c6.315,0.341,23.744-0.213,41.344-15.723c26.24-23.147,39.552-68.096,39.552-133.611c0-14.165,4.651-21.333,15.851-21.333 c9.728,0,26.005,18.304,28.672,36.331c3.371,22.784,4.992,56.469-0.768,83.52l-8.235,47.147 c-1.088,6.208,0.619,12.565,4.672,17.408c4.053,4.821,10.048,7.595,16.341,7.595h157.824c1.237,0,12.203,0.256,12.203,9.28 c0,6.528-5.589,12.053-12.203,12.053h-16.661h-8.341H384c-11.776,0-21.333,9.557-21.333,21.333s9.557,21.333,21.333,21.333h40.021 h8.341h22.165c5.525,0,14.805,1.515,14.805,11.669C469.333,319.723,458.581,320,457.344,320z"/></symbol><symbol id="like-1" viewBox="0 0 511.994 511.994"><title>like-1</title><path d="M511.993,310.336c0-15.765-5.959-29.037-15.781-38.516c4.872-8.166,7.674-17.698,7.674-27.873 c0-30.291-24.613-51.947-54.869-51.947H316.575l3.867-22.143c6.013-28.091,5.779-64.493,0.964-97.092 C315.98,36.211,284.794,0,250.51,0h-1.984c-33.614,0-56.533,26.174-56.533,64c0,54.193-9.44,85.663-23.305,99.901 c-5.488,5.635-9.901,7.005-12.239,6.849c0.311,0.023-1.832-0.083-1.832-0.083h-5.282v-0.006c0-11.782-9.551-21.333-21.333-21.333 H21.334c-11.782,0-21.333,9.551-21.333,21.333v320c0,11.782,9.551,21.333,21.333,21.333h106.667 c11.78,0,21.329-9.548,21.333-21.327h258.04c30.201,0,54.656-22.412,54.656-52.651c0-6.277-1.058-12.279-3.005-17.848 c16.668-8.814,27.901-25.838,27.901-46.365c0-6.156-1.013-12.037-2.881-17.5C500.732,347.651,511.993,330.878,511.993,310.336z M42.668,191.994h63.992c0,0.002,0,0.004,0,0.006v277.327H42.668V191.994z M457.358,320h-24.872c-0.043,0-0.084-0.006-0.127-0.006 h-48.363c-11.782,0-21.333,9.551-21.333,21.333c0,11.782,9.551,21.333,21.333,21.333h48.087c0.091,0.001,0.18,0.006,0.272,0.006 c6.933,0,11.904,4.812,11.904,11.136c0,5.936-4.587,10.197-11.904,10.197h-16.528c-0.043,0-0.084-0.006-0.127-0.006h-53.035 c-11.782,0-21.333,9.551-21.333,21.333c0,11.782,9.551,21.333,21.333,21.333h44.436c0.091,0.001,0.18,0.006,0.272,0.006 c6.869,0,11.989,4.983,11.989,11.349c0,5.803-4.562,9.984-11.989,9.984H149.334V213.333h4.449 c13.928,0.877,30.525-4.317,45.472-19.666c22.829-23.442,35.404-65.364,35.404-129.667c0-15.429,5.17-21.333,13.867-21.333h1.984 c10.009,0,26.061,18.639,28.69,36.348c4.128,27.948,4.331,59.457-0.636,82.717l-8.387,47.931 c-2.28,13.052,7.765,25.004,21.015,25.004h157.824c7.821,0,12.203,3.855,12.203,9.28c0,6.571-5.516,12.053-12.203,12.053h-16.53 c-0.043,0-0.084-0.006-0.127-0.006h-48.363c-11.782,0-21.333,9.551-21.333,21.333c0,11.782,9.551,21.333,21.333,21.333h39.767 c0.091,0.001,0.18,0.006,0.272,0.006h30.485c9.908,0,14.805,4.245,14.805,11.669C469.326,316.011,464.913,320,457.358,320z"/></symbol><symbol id="trash" viewBox="0 0 512 512"><title>trash</title><path d="M490.667,85.333h-42.665H448h-68.675l-7.012-28.062C363.905,23.609,333.658,0,298.965,0h-85.931 c-34.693,0-64.94,23.609-73.348,57.273l-7.012,28.06H64.002c0,0-0.001,0-0.001,0c0,0,0,0-0.001,0H21.333 C9.551,85.333,0,94.885,0,106.667C0,118.449,9.551,128,21.333,128h22.488l17.974,323.53C63.683,485.452,91.744,512,125.719,512 h260.565c33.975,0,62.036-26.548,63.924-60.468L468.183,128h22.484c11.782,0,21.333-9.551,21.333-21.333 C512,94.885,502.449,85.333,490.667,85.333z M181.081,67.614c3.663-14.664,16.838-24.948,31.954-24.948h85.931 c15.116,0,28.291,10.284,31.953,24.946l4.428,17.721H176.653L181.081,67.614z M407.608,449.163 c-0.63,11.311-9.993,20.17-21.324,20.17H125.719c-11.33,0-20.694-8.859-21.324-20.172L86.554,128h62.78h213.333h62.784 L407.608,449.163z"/><path d="M170.667,170.667c-11.782,0-21.333,9.551-21.333,21.333v213.333c0,11.782,9.551,21.333,21.333,21.333 c11.782,0,21.333-9.551,21.333-21.333V192C192,180.218,182.449,170.667,170.667,170.667z"/><path d="M256,170.667c-11.782,0-21.333,9.551-21.333,21.333v213.333c0,11.782,9.551,21.333,21.333,21.333 s21.333-9.551,21.333-21.333V192C277.333,180.218,267.782,170.667,256,170.667z"/><path d="M341.333,170.667C329.551,170.667,320,180.218,320,192v213.333c0,11.782,9.551,21.333,21.333,21.333 c11.782,0,21.333-9.551,21.333-21.333V192C362.667,180.218,353.115,170.667,341.333,170.667z"/></symbol><symbol id="trash-1" viewBox="0 0 512 512"><title>trash-1</title><path d="M490.667,85.333H448h-68.693l-7.019-28.075C363.883,23.552,333.717,0,298.965,0h-85.931 c-34.752,0-64.917,23.552-73.323,57.259l-7.019,28.075H64H21.333C9.536,85.333,0,94.891,0,106.667S9.536,128,21.333,128h22.485 l17.963,323.541C63.68,485.44,91.776,512,125.717,512h260.565c33.941,0,62.037-26.56,63.936-60.459L468.181,128h22.485 c11.797,0,21.333-9.557,21.333-21.333S502.464,85.333,490.667,85.333z M181.077,67.605c3.691-14.677,16.811-24.939,31.957-24.939 h85.931c15.147,0,28.267,10.261,31.957,24.939l4.416,17.728H176.661L181.077,67.605z M192,405.333 c0,11.776-9.536,21.333-21.333,21.333c-11.797,0-21.333-9.557-21.333-21.333V192c0-11.776,9.536-21.333,21.333-21.333 c11.797,0,21.333,9.557,21.333,21.333V405.333z M277.333,405.333c0,11.776-9.536,21.333-21.333,21.333 s-21.333-9.557-21.333-21.333V192c0-11.776,9.536-21.333,21.333-21.333s21.333,9.557,21.333,21.333V405.333z M362.667,405.333 c0,11.776-9.536,21.333-21.333,21.333c-11.797,0-21.333-9.557-21.333-21.333V192c0-11.776,9.536-21.333,21.333-21.333 c11.797,0,21.333,9.557,21.333,21.333V405.333z"/></symbol><symbol id="error" viewBox="0 0 511.76 511.76"><title>error</title><path d="M436.896,74.869c-99.84-99.819-262.208-99.819-362.048,0c-99.797,99.819-99.797,262.229,0,362.048 c49.92,49.899,115.477,74.837,181.035,74.837s131.093-24.939,181.013-74.837C536.715,337.099,536.715,174.688,436.896,74.869z M361.461,331.317c8.341,8.341,8.341,21.824,0,30.165c-4.16,4.16-9.621,6.251-15.083,6.251c-5.461,0-10.923-2.091-15.083-6.251 l-75.413-75.435l-75.392,75.413c-4.181,4.16-9.643,6.251-15.083,6.251c-5.461,0-10.923-2.091-15.083-6.251 c-8.341-8.341-8.341-21.845,0-30.165l75.392-75.413l-75.413-75.413c-8.341-8.341-8.341-21.845,0-30.165 c8.32-8.341,21.824-8.341,30.165,0l75.413,75.413l75.413-75.413c8.341-8.341,21.824-8.341,30.165,0 c8.341,8.32,8.341,21.824,0,30.165l-75.413,75.413L361.461,331.317z"/></symbol><symbol id="close" viewBox="0 0 512 512"><title>close</title><path d="M437.016,74.984c-99.979-99.979-262.075-99.979-362.033,0.002c-99.978,99.978-99.978,262.073,0.004,362.031 c99.954,99.978,262.05,99.978,362.029-0.002C536.995,337.059,536.995,174.964,437.016,74.984z M406.848,406.844 c-83.318,83.318-218.396,83.318-301.691,0.004c-83.318-83.299-83.318-218.377-0.002-301.693 c83.297-83.317,218.375-83.317,301.691,0S490.162,323.549,406.848,406.844z"/><path d="M361.592,150.408c-8.331-8.331-21.839-8.331-30.17,0l-75.425,75.425l-75.425-75.425c-8.331-8.331-21.839-8.331-30.17,0 s-8.331,21.839,0,30.17l75.425,75.425L150.43,331.4c-8.331,8.331-8.331,21.839,0,30.17c8.331,8.331,21.839,8.331,30.17,0 l75.397-75.397l75.419,75.419c8.331,8.331,21.839,8.331,30.17,0c8.331-8.331,8.331-21.839,0-30.17l-75.419-75.419l75.425-75.425 C369.923,172.247,369.923,158.74,361.592,150.408z"/></symbol><symbol id="edit" viewBox="0 0 512.249 512.249"><title>edit</title><path d="M485.952,153.418c35.062-35.062,35.062-91.876,0-126.938c-35.028-35.028-91.766-35.059-126.836-0.097 c-0.031,0.031-0.065,0.056-0.096,0.087L70.95,314.217c-0.448,0.411-0.877,0.841-1.288,1.287l-33.158,33.12 c-2.796,2.793-4.762,6.308-5.677,10.153L0.597,485.775c-3.68,15.461,10.232,29.374,25.693,25.693l126.997-30.229 c3.837-0.913,7.346-2.873,10.136-5.66l256.678-256.39c0.012-0.012,0.026-0.023,0.039-0.035c0.012-0.012,0.022-0.026,0.034-0.038 l65.732-65.658C485.922,153.444,485.938,153.432,485.952,153.418z M455.783,56.65c12.966,12.966,16.782,31.591,11.473,47.901 l-59.374-59.374C424.191,39.868,442.816,43.683,455.783,56.65z M195.236,352.178c-0.012-0.004-0.023-0.008-0.035-0.012 c-0.283-0.099-0.569-0.192-0.858-0.279c-0.08-0.024-0.161-0.048-0.242-0.071c-0.178-0.051-0.356-0.103-0.536-0.15 c-0.054-0.014-0.11-0.026-0.164-0.04c-0.142-0.036-0.286-0.07-0.429-0.103c-0.123-0.028-0.246-0.059-0.37-0.085 c-0.078-0.017-0.156-0.031-0.233-0.047c-0.166-0.033-0.333-0.063-0.5-0.092c-0.052-0.009-0.104-0.02-0.156-0.029 c-0.036-0.006-0.071-0.014-0.108-0.02c-0.095-0.016-0.191-0.029-0.287-0.044c-0.148-0.022-0.298-0.041-0.447-0.06 c-0.206-0.027-0.413-0.052-0.62-0.072c-0.13-0.013-0.261-0.023-0.392-0.033c-0.227-0.018-0.455-0.034-0.684-0.045 c-0.118-0.006-0.236-0.008-0.354-0.012c-0.24-0.007-0.481-0.012-0.722-0.011c-0.115,0-0.23,0.003-0.346,0.006 c-0.243,0.005-0.485,0.012-0.729,0.025c-0.119,0.006-0.238,0.015-0.358,0.024c-0.251,0.017-0.502,0.038-0.751,0.064 c-0.041,0.004-0.081,0.006-0.122,0.01l-30.264,3.357l5.165-26.423c0.186-0.943,0.305-1.907,0.362-2.885 c0.094-1.592,0.011-3.163-0.24-4.69c-0.005-0.031-0.012-0.061-0.017-0.092c-0.051-0.303-0.107-0.605-0.171-0.905 c-0.049-0.231-0.106-0.458-0.162-0.686c-0.023-0.092-0.043-0.185-0.067-0.277c-2.177-8.36-9.209-14.529-17.624-15.724 l165.501-165.315l66.598,66.598L209.309,369.44C208.243,361.531,202.788,354.824,195.236,352.178z M137.54,441.129 l-87.409,20.806l20.803-87.396l24.235-24.208l18.089-2.014l-6.113,31.274c-0.102,0.477-0.185,0.959-0.254,1.445 c-0.002,0.014-0.004,0.028-0.006,0.042c-0.046,0.327-0.085,0.655-0.116,0.985c-0.006,0.065-0.011,0.129-0.016,0.193 c-0.023,0.269-0.042,0.539-0.054,0.811c-0.006,0.13-0.009,0.259-0.013,0.389c-0.005,0.201-0.01,0.401-0.01,0.603 c0,0.201,0.004,0.402,0.01,0.603c0.004,0.13,0.007,0.259,0.013,0.389c0.012,0.271,0.031,0.541,0.054,0.811 c0.006,0.064,0.01,0.129,0.016,0.193c0.031,0.33,0.07,0.658,0.116,0.985c0.002,0.014,0.004,0.028,0.006,0.042 c0.151,1.057,0.38,2.093,0.684,3.103c0.011,0.037,0.021,0.074,0.032,0.111c0.076,0.248,0.159,0.494,0.244,0.738 c0.036,0.105,0.07,0.212,0.108,0.317c0.052,0.143,0.109,0.283,0.164,0.424c1.057,2.733,2.642,5.158,4.614,7.176 c0.063,0.064,0.123,0.131,0.186,0.195c0.058,0.058,0.119,0.112,0.177,0.17c2.021,1.979,4.452,3.57,7.192,4.629 c0.141,0.055,0.282,0.112,0.424,0.164c0.104,0.038,0.211,0.072,0.316,0.108c0.245,0.085,0.491,0.168,0.74,0.245 c0.036,0.011,0.073,0.021,0.109,0.031c1.01,0.304,2.047,0.533,3.104,0.684c0.014,0.002,0.028,0.004,0.042,0.006 c0.327,0.046,0.655,0.085,0.986,0.116c0.065,0.006,0.129,0.011,0.193,0.016c0.269,0.023,0.539,0.042,0.811,0.054 c0.13,0.006,0.259,0.009,0.389,0.013c0.201,0.005,0.401,0.01,0.603,0.01c0.201,0,0.402-0.004,0.603-0.01 c0.13-0.004,0.259-0.007,0.389-0.013c0.271-0.012,0.541-0.031,0.811-0.054c0.065-0.006,0.129-0.01,0.193-0.016 c0.33-0.031,0.659-0.07,0.986-0.116c0.014-0.002,0.028-0.004,0.042-0.006c0.486-0.07,0.968-0.152,1.445-0.254l31.274-6.113 l-2.021,18.156L137.54,441.129z M405.063,173.906l-66.598-66.598l35.624-35.584l66.598,66.598L405.063,173.906z"/><path d="M313.76,198.307c-8.331-8.331-21.839-8.331-30.17,0l-85.333,85.333c-8.331,8.331-8.331,21.839,0,30.17 c8.331,8.331,21.839,8.331,30.17,0l85.333-85.333C322.092,220.146,322.092,206.638,313.76,198.307z"/></symbol><symbol id="edit-1" viewBox="0 0 512.035 512.035"><title>edit-1</title><polygon points="308.296,76.933 435.229,203.866 470.856,168.282 343.922,41.349 "/><path d="M485.945,26.272c-29.76-29.76-75.307-33.984-109.845-13.077l122.923,122.923 C519.907,101.6,515.726,56.054,485.945,26.272z"/><path d="M36.511,348.442c-2.795,2.795-4.757,6.293-5.675,10.133L0.586,485.594c-1.728,7.189,0.427,14.784,5.675,20.011 c4.032,4.032,9.493,6.251,15.083,6.251c1.643,0,3.307-0.192,4.928-0.576l127.019-30.251c3.819-0.917,7.339-2.88,10.133-5.675 L405.044,234.01L278.111,107.077L36.511,348.442z M313.759,198.106c8.341,8.341,8.341,21.824,0,30.165l-85.333,85.333 c-4.16,4.16-9.621,6.251-15.083,6.251c-5.461,0-10.923-2.091-15.083-6.251c-8.341-8.341-8.341-21.824,0-30.165l85.333-85.333 C291.935,189.765,305.418,189.765,313.759,198.106z"/></symbol><symbol id="wifi" viewBox="0 0 495.211 495.211"><title>wifi</title><path d="M247.607,290.273c-47.131,0-85.333,38.202-85.333,85.333s38.202,85.333,85.333,85.333s85.333-38.202,85.333-85.333 S294.739,290.273,247.607,290.273z M247.607,418.273c-23.567,0-42.667-19.099-42.667-42.667s19.099-42.667,42.667-42.667 s42.667,19.099,42.667,42.667S271.175,418.273,247.607,418.273z"/><path d="M126.927,254.926c-8.331,8.331-8.331,21.839,0,30.17s21.839,8.331,30.17,0c49.994-49.994,131.036-49.994,181.03,0 c8.331,8.331,21.839,8.331,30.17,0s8.331-21.839,0-30.17C301.64,188.269,193.583,188.269,126.927,254.926z"/><path d="M66.588,194.587c-8.331,8.331-8.331,21.839,0,30.17s21.839,8.331,30.17,0c83.317-83.317,218.394-83.317,301.69-0.002 c8.33,8.332,21.838,8.334,30.17,0.004c8.332-8.33,8.334-21.838,0.003-30.17C328.663,94.607,166.567,94.607,66.588,194.587z"/><path d="M488.962,134.247C355.66,0.945,139.55,0.945,6.248,134.247c-8.331,8.331-8.331,21.839,0,30.17s21.839,8.331,30.17,0 c116.64-116.639,305.735-116.639,422.374,0c8.331,8.331,21.839,8.331,30.17,0S497.293,142.579,488.962,134.247z"/></symbol><symbol id="wireless" viewBox="0 0 512 512"><title>wireless</title><path d="M0,0v512h512V0H0z M256,469.333c-47.083,0-85.333-38.272-85.333-85.333c0-47.04,38.251-85.333,85.333-85.333 c47.061,0,85.333,38.293,85.333,85.333C341.333,431.061,303.061,469.333,256,469.333z M376.683,293.504 c-4.181,4.16-9.621,6.251-15.083,6.251c-5.461,0-10.923-2.091-15.083-6.251c-49.92-49.899-131.136-49.899-181.056,0 c-8.32,8.32-21.824,8.32-30.165,0c-8.32-8.341-8.32-21.845,0-30.165c66.539-66.539,174.848-66.539,241.387,0 C385.003,271.659,385.003,285.163,376.683,293.504z M437.013,233.152c-4.16,4.16-9.621,6.251-15.083,6.251 s-10.923-2.091-15.083-6.251c-83.179-83.157-218.539-83.157-301.717,0c-8.32,8.341-21.824,8.341-30.165,0 c-8.32-8.32-8.32-21.824,0-30.165c99.84-99.819,262.208-99.819,362.048,0C445.333,211.328,445.333,224.832,437.013,233.152z M497.344,172.821c-4.16,4.16-9.621,6.251-15.083,6.251c-5.461,0-10.923-2.091-15.083-6.251 C410.752,116.416,335.765,85.333,256,85.333c-79.787,0-154.773,31.083-211.2,87.488c-8.341,8.341-21.824,8.341-30.165,0 c-8.341-8.341-8.341-21.824,0-30.165C79.104,78.187,164.821,42.667,256,42.667c91.157,0,176.896,35.52,241.344,99.989 C505.685,150.997,505.685,164.48,497.344,172.821z"/><path d="M255.989,341.342c-23.531,0-42.667,19.136-42.667,42.667c0,23.531,19.136,42.667,42.667,42.667 s42.667-19.136,42.667-42.667C298.656,360.478,279.52,341.342,255.989,341.342z"/></symbol><symbol id="send" viewBox="0 0 512 512"><title>send</title><path d="M505.265,162.41L347.727,24.564c-5.809-5.081-14.06-6.282-21.091-3.111c-7.05,3.19-11.559,10.201-11.559,17.92v19.692 H19.692C8.802,59.065,0,67.887,0,78.757v393.846c0,10.89,8.802,19.692,19.692,19.692h393.846c10.89,0,19.692-8.802,19.692-19.692 V255.082l72.034-63.035c4.293-3.742,6.735-9.137,6.735-14.828C512,171.548,509.558,166.152,505.265,162.41z M393.846,452.911 H39.385V98.45h275.692v4.825c-44.741,14.159-171.697,66.895-177.211,211.042c-0.394,9.689,6.361,18.215,15.892,20.086 c1.26,0.256,2.54,0.354,3.801,0.354c8.133,0,15.616-5.061,18.471-12.958c19.909-54.725,101.77-64.177,139.047-65.634v58.9 c0,7.739,4.51,14.75,11.559,17.94c2.304,1.063,4.766,1.457,7.227,1.556c0.315,0.02,0.591,0.197,0.906,0.197 c0.394,0,0.768-0.177,1.142-0.197c1.477-0.099,2.875-0.374,4.293-0.768c0.67-0.197,1.339-0.335,1.969-0.591 c1.989-0.807,3.899-1.851,5.553-3.308l46.119-40.35V452.911z"/></symbol><symbol id="send-1" viewBox="0 0 512 512"><title>send-1</title><g transform="translate(0 -1)"> <g> <path d="M505.275,163.43L347.737,25.584c-12.733-11.141-32.66-2.099-32.66,14.82v19.692H19.692C8.817,60.096,0,68.913,0,79.788 v393.846c0,10.876,8.817,19.692,19.692,19.692h393.846c10.876,0,19.692-8.817,19.692-19.692V256.109l72.044-63.039 C514.242,185.224,514.242,171.276,505.275,163.43z M315.077,217.709c-5.356,0.194-11.125,0.528-17.226,1.035 c-20.537,1.706-40.84,5.087-60.026,10.585c-16.385,4.695-31.284,10.718-44.401,18.198l0.279-0.59 c13.685-28.781,35.384-52.467,63.503-71.749c17.958-12.314,37.313-21.911,56.665-29.057c0.404-0.149,0.806-0.296,1.206-0.442 V217.709z M393.846,453.942H39.385V99.481h275.692v4.636c-4.428,1.38-9.401,3.056-14.847,5.067 c-22.225,8.206-44.449,19.225-65.297,33.522c-57.873,39.685-94.169,96.648-97.072,172.643c-0.858,22.45,30.508,28.595,38.185,7.48 c9.676-26.615,35.024-44.863,72.629-55.639c16.477-4.722,34.3-7.69,52.437-9.196c4.934-0.41,9.607-0.691,13.966-0.869v58.971 c0,16.919,19.927,25.961,32.66,14.82l46.109-40.346V453.942z M400.571,232.353C400.571,232.353,400.571,232.353,400.571,232.353 l-46.11,40.346v-35.368V119.177V83.801l107.942,94.449L400.571,232.353z"/> </g> </g></symbol></svg>