<svg xmlns="http://www.w3.org/2000/svg" style="display: none;"><symbol id="success" viewBox="0 0 52 52"><title>success</title><path d="M26,0C11.664,0,0,11.663,0,26s11.664,26,26,26s26-11.663,26-26S40.336,0,26,0z M26,50C12.767,50,2,39.233,2,26 S12.767,2,26,2s24,10.767,24,24S39.233,50,26,50z"/><path d="M38.252,15.336l-15.369,17.29l-9.259-7.407c-0.43-0.345-1.061-0.274-1.405,0.156c-0.345,0.432-0.275,1.061,0.156,1.406 l10,8C22.559,34.928,22.78,35,23,35c0.276,0,0.551-0.114,0.748-0.336l16-18c0.367-0.412,0.33-1.045-0.083-1.411 C39.251,14.885,38.62,14.922,38.252,15.336z"/></symbol><symbol id="error" viewBox="0 0 52 52"><title>error</title><path d="M26,0C11.664,0,0,11.663,0,26s11.664,26,26,26s26-11.663,26-26S40.336,0,26,0z M26,50C12.767,50,2,39.233,2,26 S12.767,2,26,2s24,10.767,24,24S39.233,50,26,50z"/><path d="M35.707,16.293c-0.391-0.391-1.023-0.391-1.414,0L26,24.586l-8.293-8.293c-0.391-0.391-1.023-0.391-1.414,0 s-0.391,1.023,0,1.414L24.586,26l-8.293,8.293c-0.391,0.391-0.391,1.023,0,1.414C16.488,35.902,16.744,36,17,36 s0.512-0.098,0.707-0.293L26,27.414l8.293,8.293C34.488,35.902,34.744,36,35,36s0.512-0.098,0.707-0.293 c0.391-0.391,0.391-1.023,0-1.414L27.414,26l8.293-8.293C36.098,17.316,36.098,16.684,35.707,16.293z"/></symbol><symbol id="alert" viewBox="0 0 52 52"><title>alert</title><path d="M26,0C11.664,0,0,11.663,0,26s11.664,26,26,26s26-11.663,26-26S40.336,0,26,0z M26,50C12.767,50,2,39.233,2,26 S12.767,2,26,2s24,10.767,24,24S39.233,50,26,50z"/><path d="M26,10c-0.552,0-1,0.447-1,1v22c0,0.553,0.448,1,1,1s1-0.447,1-1V11C27,10.447,26.552,10,26,10z"/><path d="M26,37c-0.552,0-1,0.447-1,1v2c0,0.553,0.448,1,1,1s1-0.447,1-1v-2C27,37.447,26.552,37,26,37z"/></symbol><symbol id="refresh" viewBox="0 0 53 53"><title>refresh</title><path d="M37.467,46.633c-0.591,0.226-1.2,0.427-1.811,0.597c-0.531,0.147-0.843,0.699-0.694,1.231 c0.123,0.442,0.524,0.731,0.962,0.731c0.089,0,0.18-0.012,0.27-0.037c0.669-0.186,1.338-0.406,1.986-0.653 c0.517-0.197,0.774-0.775,0.578-1.291C38.561,46.695,37.979,46.437,37.467,46.633z"/><path d="M42.475,43.894c-0.508,0.376-1.04,0.734-1.583,1.064c-0.472,0.287-0.622,0.902-0.335,1.374 c0.188,0.31,0.518,0.48,0.855,0.48c0.177,0,0.356-0.047,0.519-0.146c0.595-0.361,1.179-0.754,1.735-1.166 c0.443-0.329,0.536-0.955,0.208-1.399C43.545,43.658,42.921,43.564,42.475,43.894z"/><path d="M31.906,47.914C31.278,47.971,30.637,48,30,48c-0.553,0-1,0.447-1,1s0.447,1,1,1c0.697,0,1.398-0.031,2.086-0.094 c0.551-0.05,0.956-0.536,0.906-1.086S32.448,47.855,31.906,47.914z"/><path d="M50.738,34.43c-0.509-0.211-1.095,0.033-1.305,0.545c-0.241,0.587-0.512,1.169-0.805,1.729 c-0.255,0.489-0.065,1.094,0.424,1.35c0.147,0.077,0.306,0.113,0.462,0.113c0.36,0,0.709-0.195,0.888-0.537 c0.32-0.613,0.617-1.251,0.881-1.895C51.493,35.224,51.249,34.64,50.738,34.43z"/><path d="M51.969,28.572c-0.539-0.069-1.045,0.329-1.109,0.877c-0.074,0.632-0.178,1.266-0.307,1.884 c-0.113,0.54,0.232,1.07,0.773,1.184c0.069,0.015,0.138,0.021,0.206,0.021c0.463,0,0.879-0.323,0.978-0.795 c0.142-0.677,0.255-1.37,0.336-2.062C52.91,29.133,52.518,28.637,51.969,28.572z"/><path d="M46.565,39.909c-0.392,0.501-0.809,0.988-1.241,1.45c-0.378,0.402-0.357,1.035,0.046,1.413 c0.192,0.181,0.438,0.271,0.684,0.271c0.267,0,0.532-0.106,0.729-0.316c0.474-0.504,0.931-1.038,1.358-1.587 c0.34-0.436,0.263-1.063-0.173-1.403C47.532,39.396,46.904,39.474,46.565,39.909z"/><path d="M52,27c0.553,0,1-0.447,1-1C53,13.317,42.683,3,30,3C18.093,3,8.272,12.094,7.115,23.701l-5.408-5.408 c-0.391-0.391-1.023-0.391-1.414,0s-0.391,1.023,0,1.414l6.999,6.999c0.092,0.093,0.203,0.166,0.326,0.217 C7.74,26.974,7.87,27,8,27s0.26-0.026,0.382-0.077c0.123-0.051,0.234-0.124,0.326-0.217l6.999-6.999 c0.391-0.391,0.391-1.023,0-1.414s-1.023-0.391-1.414,0l-5.116,5.116C10.46,13.05,19.3,5,30,5c11.579,0,21,9.421,21,21 C51,26.553,51.447,27,52,27z"/></symbol><symbol id="plus" viewBox="0 0 52 52"><title>plus</title><path d="M26,0C11.664,0,0,11.663,0,26s11.664,26,26,26s26-11.663,26-26S40.336,0,26,0z M26,50C12.767,50,2,39.233,2,26 S12.767,2,26,2s24,10.767,24,24S39.233,50,26,50z"/><path d="M38.5,25H27V14c0-0.553-0.448-1-1-1s-1,0.447-1,1v11H13.5c-0.552,0-1,0.447-1,1s0.448,1,1,1H25v12c0,0.553,0.448,1,1,1 s1-0.447,1-1V27h11.5c0.552,0,1-0.447,1-1S39.052,25,38.5,25z"/></symbol></svg>